# MagicaVoxel @ Ephtracy

# group
o 

# material
mtllib Machete.mtl
usemtl palette

# normals
vn -1 0 0
vn 1 0 0
vn 0 0 1
vn 0 0 -1
vn 0 -1 0
vn 0 1 0

# texcoords
vt 0.978516 0.5
vt 0.982422 0.5
vt 0.990234 0.5
vt 0.994141 0.5

# verts
v -0.4 0 0.3
v -0.4 0 0.1
v -0.4 0.4 0.3
v -0.4 0.4 0.1
v -0.4 0.6 0.3
v -0.4 0.6 0.1
v -0.4 0.7 0.3
v -0.4 0.7 0.1
v -0.4 0.8 0.3
v -0.4 0.8 0.1
v -0.4 0.9 0.3
v -0.4 0.9 0.1
v -0.4 1 0.3
v -0.4 1 0.1
v -0.4 1.5 0.3
v -0.4 1.5 0.1
v -0.3 0 0.4
v -0.3 0 0.3
v -0.3 0 0.1
v -0.3 0 0
v -0.3 0.3 0.4
v -0.3 0.3 0.3
v -0.3 0.3 0.1
v -0.3 0.3 0
v -0.3 0.4 0.3
v -0.3 0.4 0.1
v -0.3 0.5 0.3
v -0.3 0.5 0.1
v -0.3 0.6 0.4
v -0.3 0.6 0.3
v -0.3 0.6 0.1
v -0.3 0.6 0
v -0.3 0.7 0.4
v -0.3 0.7 0.3
v -0.3 0.7 0.1
v -0.3 0.7 0
v -0.3 0.8 0.4
v -0.3 0.8 0.3
v -0.3 0.8 0.1
v -0.3 0.8 0
v -0.3 0.9 0.4
v -0.3 0.9 0.3
v -0.3 0.9 0.1
v -0.3 0.9 0
v -0.3 1 0.3
v -0.3 1 0.1
v -0.3 1.4 0.4
v -0.3 1.4 0.3
v -0.3 1.4 0.1
v -0.3 1.4 0
v -0.3 1.5 0.4
v -0.3 1.5 0.3
v -0.3 1.5 0.1
v -0.3 1.5 0
v -0.3 3.7 0.3
v -0.3 3.7 0.1
v -0.2 0.3 0.4
v -0.2 0.3 0.3
v -0.2 0.3 0.1
v -0.2 0.3 0
v -0.2 0.4 0.4
v -0.2 0.4 0.3
v -0.2 0.4 0.1
v -0.2 0.4 0
v -0.2 3.7 0.3
v -0.2 3.7 0.1
v -0.2 3.8 0.3
v -0.2 3.8 0.1
v -0.1 3.8 0.3
v -0.1 3.8 0.1
v -0.1 3.9 0.3
v -0.1 3.9 0.1
v 0 3.9 0.3
v 0 3.9 0.1
v 0 4 0.3
v 0 4 0.1
v 0.1 1.3 0.4
v 0.1 1.3 0.3
v 0.1 1.3 0.1
v 0.1 1.3 0
v 0.1 1.4 0.4
v 0.1 1.4 0.3
v 0.1 1.4 0.1
v 0.1 1.4 0
v -0.1 2.5 0.3
v -0.1 2.5 0.1
v -0.1 2.6 0.3
v -0.1 2.6 0.1
v -0.1 2.7 0.3
v -0.1 2.7 0.1
v -0.1 2.8 0.3
v -0.1 2.8 0.1
v -0.1 2.9 0.3
v -0.1 2.9 0.1
v -0.1 3 0.3
v -0.1 3 0.1
v -0.1 3.1 0.3
v -0.1 3.1 0.1
v -0.1 3.2 0.3
v -0.1 3.2 0.1
v 0 0.3 0.4
v 0 0.3 0.3
v 0 0.3 0.1
v 0 0.3 0
v 0 0.4 0.4
v 0 0.4 0.3
v 0 0.4 0.1
v 0 0.4 0
v 0 0.5 0.3
v 0 0.5 0.1
v 0 0.6 0.3
v 0 0.6 0.1
v 0 0.7 0.3
v 0 0.7 0.1
v 0 0.8 0.3
v 0 0.8 0.1
v 0 0.9 0.3
v 0 0.9 0.1
v 0 1 0.3
v 0 1 0.1
v 0.1 0.2 0.4
v 0.1 0.2 0.3
v 0.1 0.2 0.1
v 0.1 0.2 0
v 0.1 0.3 0.4
v 0.1 0.3 0.3
v 0.1 0.3 0.1
v 0.1 0.3 0
v 0.1 0.4 0.3
v 0.1 0.4 0.1
v 0.1 0.6 0.4
v 0.1 0.6 0
v 0.1 0.7 0.4
v 0.1 0.7 0
v 0.1 0.8 0.4
v 0.1 0.8 0
v 0.1 0.9 0.4
v 0.1 0.9 0
v 0.1 1 0.3
v 0.1 1 0.1
v 0.1 1.3 0.3
v 0.1 1.3 0.1
v 0.1 1.5 0.3
v 0.1 1.5 0.1
v 0.1 2.5 0.3
v 0.1 2.5 0.1
v 0.1 2.6 0.3
v 0.1 2.6 0.1
v 0.1 2.7 0.3
v 0.1 2.7 0.1
v 0.1 2.8 0.3
v 0.1 2.8 0.1
v 0.1 2.9 0.3
v 0.1 2.9 0.1
v 0.1 3 0.3
v 0.1 3 0.1
v 0.1 3.1 0.3
v 0.1 3.1 0.1
v 0.1 3.2 0.3
v 0.1 3.2 0.1
v 0.1 4 0.3
v 0.1 4 0.1
v 0.2 0.1 0.4
v 0.2 0.1 0.3
v 0.2 0.1 0.1
v 0.2 0.1 0
v 0.2 0.2 0.4
v 0.2 0.2 0.3
v 0.2 0.2 0.1
v 0.2 0.2 0
v 0.2 0.3 0.3
v 0.2 0.3 0.1
v 0.2 1.3 0.4
v 0.2 1.3 0
v 0.2 1.4 0.4
v 0.2 1.4 0
v 0.3 0 0.4
v 0.3 0 0.3
v 0.3 0 0.1
v 0.3 0 0
v 0.3 0.1 0.4
v 0.3 0.1 0.3
v 0.3 0.1 0.1
v 0.3 0.1 0
v 0.3 0.2 0.3
v 0.3 0.2 0.1
v 0.3 1.4 0.4
v 0.3 1.4 0
v 0.3 1.5 0.4
v 0.3 1.5 0
v 0.4 0 0.3
v 0.4 0 0.1
v 0.4 0.1 0.3
v 0.4 0.1 0.1
v -0.3 0 0.4
v -0.3 0.3 0.4
v -0.3 0.6 0.4
v -0.3 0.7 0.4
v -0.3 0.8 0.4
v -0.3 0.9 0.4
v -0.3 1.4 0.4
v -0.3 1.5 0.4
v -0.2 0.3 0.4
v -0.2 0.4 0.4
v 0 0.3 0.4
v 0 0.4 0.4
v 0.1 0.2 0.4
v 0.1 0.3 0.4
v 0.1 0.6 0.4
v 0.1 0.7 0.4
v 0.1 0.8 0.4
v 0.1 0.9 0.4
v 0.1 1.3 0.4
v 0.1 1.4 0.4
v 0.2 0.1 0.4
v 0.2 0.2 0.4
v 0.2 1.3 0.4
v 0.2 1.4 0.4
v 0.3 0 0.4
v 0.3 0.1 0.4
v 0.3 1.4 0.4
v 0.3 1.5 0.4
v -0.4 0 0.3
v -0.4 0.4 0.3
v -0.4 0.6 0.3
v -0.4 0.7 0.3
v -0.4 0.8 0.3
v -0.4 0.9 0.3
v -0.4 1 0.3
v -0.4 1.5 0.3
v -0.3 0 0.3
v -0.3 0.3 0.3
v -0.3 0.4 0.3
v -0.3 0.5 0.3
v -0.3 0.6 0.3
v -0.3 0.7 0.3
v -0.3 0.8 0.3
v -0.3 0.9 0.3
v -0.3 1 0.3
v -0.3 1.4 0.3
v -0.3 1.5 0.3
v -0.3 3.7 0.3
v -0.2 0.3 0.3
v -0.2 0.4 0.3
v -0.2 3.7 0.3
v -0.2 3.8 0.3
v -0.1 2.5 0.3
v -0.1 2.6 0.3
v -0.1 2.7 0.3
v -0.1 2.8 0.3
v -0.1 2.9 0.3
v -0.1 3 0.3
v -0.1 3.1 0.3
v -0.1 3.2 0.3
v -0.1 3.8 0.3
v -0.1 3.9 0.3
v 0 0.3 0.3
v 0 0.4 0.3
v 0 0.5 0.3
v 0 0.6 0.3
v 0 0.7 0.3
v 0 0.8 0.3
v 0 0.9 0.3
v 0 1 0.3
v 0 3.9 0.3
v 0 4 0.3
v 0.1 0.2 0.3
v 0.1 0.3 0.3
v 0.1 0.4 0.3
v 0.1 1 0.3
v 0.1 1.3 0.3
v 0.1 1.4 0.3
v 0.1 1.5 0.3
v 0.1 2.5 0.3
v 0.1 2.6 0.3
v 0.1 2.7 0.3
v 0.1 2.8 0.3
v 0.1 2.9 0.3
v 0.1 3 0.3
v 0.1 3.1 0.3
v 0.1 3.2 0.3
v 0.1 4 0.3
v 0.2 0.1 0.3
v 0.2 0.2 0.3
v 0.2 0.3 0.3
v 0.3 0 0.3
v 0.3 0.1 0.3
v 0.3 0.2 0.3
v 0.4 0 0.3
v 0.4 0.1 0.3
v -0.4 0 0.1
v -0.4 0.4 0.1
v -0.4 0.6 0.1
v -0.4 0.7 0.1
v -0.4 0.8 0.1
v -0.4 0.9 0.1
v -0.4 1 0.1
v -0.4 1.5 0.1
v -0.3 0 0.1
v -0.3 0.3 0.1
v -0.3 0.4 0.1
v -0.3 0.5 0.1
v -0.3 0.6 0.1
v -0.3 0.7 0.1
v -0.3 0.8 0.1
v -0.3 0.9 0.1
v -0.3 1 0.1
v -0.3 1.4 0.1
v -0.3 1.5 0.1
v -0.3 3.7 0.1
v -0.2 0.3 0.1
v -0.2 0.4 0.1
v -0.2 3.7 0.1
v -0.2 3.8 0.1
v -0.1 2.5 0.1
v -0.1 2.6 0.1
v -0.1 2.7 0.1
v -0.1 2.8 0.1
v -0.1 2.9 0.1
v -0.1 3 0.1
v -0.1 3.1 0.1
v -0.1 3.2 0.1
v -0.1 3.8 0.1
v -0.1 3.9 0.1
v 0 0.3 0.1
v 0 0.4 0.1
v 0 0.5 0.1
v 0 0.6 0.1
v 0 0.7 0.1
v 0 0.8 0.1
v 0 0.9 0.1
v 0 1 0.1
v 0 3.9 0.1
v 0 4 0.1
v 0.1 0.2 0.1
v 0.1 0.3 0.1
v 0.1 0.4 0.1
v 0.1 1 0.1
v 0.1 1.3 0.1
v 0.1 1.4 0.1
v 0.1 1.5 0.1
v 0.1 2.5 0.1
v 0.1 2.6 0.1
v 0.1 2.7 0.1
v 0.1 2.8 0.1
v 0.1 2.9 0.1
v 0.1 3 0.1
v 0.1 3.1 0.1
v 0.1 3.2 0.1
v 0.1 4 0.1
v 0.2 0.1 0.1
v 0.2 0.2 0.1
v 0.2 0.3 0.1
v 0.3 0 0.1
v 0.3 0.1 0.1
v 0.3 0.2 0.1
v 0.4 0 0.1
v 0.4 0.1 0.1
v -0.3 0 0
v -0.3 0.3 0
v -0.3 0.6 0
v -0.3 0.7 0
v -0.3 0.8 0
v -0.3 0.9 0
v -0.3 1.4 0
v -0.3 1.5 0
v -0.2 0.3 0
v -0.2 0.4 0
v 0 0.3 0
v 0 0.4 0
v 0.1 0.2 0
v 0.1 0.3 0
v 0.1 0.6 0
v 0.1 0.7 0
v 0.1 0.8 0
v 0.1 0.9 0
v 0.1 1.3 0
v 0.1 1.4 0
v 0.2 0.1 0
v 0.2 0.2 0
v 0.2 1.3 0
v 0.2 1.4 0
v 0.3 0 0
v 0.3 0.1 0
v 0.3 1.4 0
v 0.3 1.5 0
v -0.3 0 0.4
v 0.3 0 0.4
v -0.4 0 0.3
v -0.3 0 0.3
v 0.3 0 0.3
v 0.4 0 0.3
v -0.4 0 0.1
v -0.3 0 0.1
v 0.3 0 0.1
v 0.4 0 0.1
v -0.3 0 0
v 0.3 0 0
v -0.3 0.6 0.4
v 0.1 0.6 0.4
v -0.4 0.6 0.3
v -0.3 0.6 0.3
v 0 0.6 0.3
v -0.4 0.6 0.1
v -0.3 0.6 0.1
v 0 0.6 0.1
v -0.3 0.6 0
v 0.1 0.6 0
v -0.3 0.8 0.4
v 0.1 0.8 0.4
v -0.4 0.8 0.3
v -0.3 0.8 0.3
v 0 0.8 0.3
v -0.4 0.8 0.1
v -0.3 0.8 0.1
v 0 0.8 0.1
v -0.3 0.8 0
v 0.1 0.8 0
v -0.4 1 0.3
v -0.3 1 0.3
v 0 1 0.3
v 0.1 1 0.3
v -0.4 1 0.1
v -0.3 1 0.1
v 0 1 0.1
v 0.1 1 0.1
v 0.1 1.3 0.4
v 0.2 1.3 0.4
v 0.1 1.3 0.3
v 0.1 1.3 0.1
v 0.1 1.3 0
v 0.2 1.3 0
v -0.3 1.4 0.4
v 0.1 1.4 0.4
v 0.2 1.4 0.4
v 0.3 1.4 0.4
v -0.3 1.4 0.3
v 0.1 1.4 0.3
v -0.3 1.4 0.1
v 0.1 1.4 0.1
v -0.3 1.4 0
v 0.1 1.4 0
v 0.2 1.4 0
v 0.3 1.4 0
v -0.1 2.6 0.3
v 0.1 2.6 0.3
v -0.1 2.6 0.1
v 0.1 2.6 0.1
v -0.1 2.8 0.3
v 0.1 2.8 0.3
v -0.1 2.8 0.1
v 0.1 2.8 0.1
v -0.1 3 0.3
v 0.1 3 0.3
v -0.1 3 0.1
v 0.1 3 0.1
v -0.1 3.2 0.3
v 0.1 3.2 0.3
v -0.1 3.2 0.1
v 0.1 3.2 0.1
v 0.2 0.1 0.4
v 0.3 0.1 0.4
v 0.2 0.1 0.3
v 0.3 0.1 0.3
v 0.4 0.1 0.3
v 0.2 0.1 0.1
v 0.3 0.1 0.1
v 0.4 0.1 0.1
v 0.2 0.1 0
v 0.3 0.1 0
v 0.1 0.2 0.4
v 0.2 0.2 0.4
v 0.1 0.2 0.3
v 0.2 0.2 0.3
v 0.3 0.2 0.3
v 0.1 0.2 0.1
v 0.2 0.2 0.1
v 0.3 0.2 0.1
v 0.1 0.2 0
v 0.2 0.2 0
v -0.3 0.3 0.4
v -0.2 0.3 0.4
v 0 0.3 0.4
v 0.1 0.3 0.4
v -0.3 0.3 0.3
v -0.2 0.3 0.3
v 0 0.3 0.3
v 0.1 0.3 0.3
v 0.2 0.3 0.3
v -0.3 0.3 0.1
v -0.2 0.3 0.1
v 0 0.3 0.1
v 0.1 0.3 0.1
v 0.2 0.3 0.1
v -0.3 0.3 0
v -0.2 0.3 0
v 0 0.3 0
v 0.1 0.3 0
v -0.2 0.4 0.4
v 0 0.4 0.4
v -0.4 0.4 0.3
v -0.3 0.4 0.3
v -0.2 0.4 0.3
v 0 0.4 0.3
v 0.1 0.4 0.3
v -0.4 0.4 0.1
v -0.3 0.4 0.1
v -0.2 0.4 0.1
v 0 0.4 0.1
v 0.1 0.4 0.1
v -0.2 0.4 0
v 0 0.4 0
v -0.3 0.7 0.4
v 0.1 0.7 0.4
v -0.4 0.7 0.3
v -0.3 0.7 0.3
v 0 0.7 0.3
v -0.4 0.7 0.1
v -0.3 0.7 0.1
v 0 0.7 0.1
v -0.3 0.7 0
v 0.1 0.7 0
v -0.3 0.9 0.4
v 0.1 0.9 0.4
v -0.4 0.9 0.3
v -0.3 0.9 0.3
v 0 0.9 0.3
v -0.4 0.9 0.1
v -0.3 0.9 0.1
v 0 0.9 0.1
v -0.3 0.9 0
v 0.1 0.9 0
v -0.3 1.5 0.4
v 0.3 1.5 0.4
v -0.4 1.5 0.3
v -0.3 1.5 0.3
v 0.1 1.5 0.3
v -0.4 1.5 0.1
v -0.3 1.5 0.1
v 0.1 1.5 0.1
v -0.3 1.5 0
v 0.3 1.5 0
v -0.1 2.5 0.3
v 0.1 2.5 0.3
v -0.1 2.5 0.1
v 0.1 2.5 0.1
v -0.1 2.7 0.3
v 0.1 2.7 0.3
v -0.1 2.7 0.1
v 0.1 2.7 0.1
v -0.1 2.9 0.3
v 0.1 2.9 0.3
v -0.1 2.9 0.1
v 0.1 2.9 0.1
v -0.1 3.1 0.3
v 0.1 3.1 0.3
v -0.1 3.1 0.1
v 0.1 3.1 0.1
v -0.3 3.7 0.3
v -0.2 3.7 0.3
v -0.3 3.7 0.1
v -0.2 3.7 0.1
v -0.2 3.8 0.3
v -0.1 3.8 0.3
v -0.2 3.8 0.1
v -0.1 3.8 0.1
v -0.1 3.9 0.3
v 0 3.9 0.3
v -0.1 3.9 0.1
v 0 3.9 0.1
v 0 4 0.3
v 0.1 4 0.3
v 0 4 0.1
v 0.1 4 0.1

# faces
f 3/4/1 2/4/1 1/4/1
f 4/4/1 2/4/1 3/4/1
f 7/1/1 6/1/1 5/1/1
f 8/1/1 6/1/1 7/1/1
f 11/1/1 10/1/1 9/1/1
f 12/1/1 10/1/1 11/1/1
f 15/4/1 14/4/1 13/4/1
f 16/4/1 14/4/1 15/4/1
f 21/4/1 18/4/1 17/4/1
f 22/4/1 18/4/1 21/4/1
f 23/4/1 20/4/1 19/4/1
f 24/4/1 20/4/1 23/4/1
f 27/4/1 26/4/1 25/4/1
f 28/4/1 26/4/1 27/4/1
f 30/3/1 28/3/1 27/3/1
f 31/3/1 28/3/1 30/3/1
f 33/1/1 30/1/1 29/1/1
f 34/1/1 30/1/1 33/1/1
f 35/1/1 32/1/1 31/1/1
f 36/1/1 32/1/1 35/1/1
f 38/3/1 35/3/1 34/3/1
f 39/3/1 35/3/1 38/3/1
f 41/1/1 38/1/1 37/1/1
f 42/1/1 38/1/1 41/1/1
f 43/1/1 40/1/1 39/1/1
f 44/1/1 40/1/1 43/1/1
f 45/3/1 43/3/1 42/3/1
f 46/3/1 43/3/1 45/3/1
f 51/4/1 48/4/1 47/4/1
f 52/4/1 48/4/1 51/4/1
f 53/4/1 50/4/1 49/4/1
f 54/4/1 50/4/1 53/4/1
f 55/2/1 53/2/1 52/2/1
f 56/2/1 53/2/1 55/2/1
f 61/4/1 58/4/1 57/4/1
f 62/4/1 58/4/1 61/4/1
f 63/4/1 60/4/1 59/4/1
f 64/4/1 60/4/1 63/4/1
f 67/2/1 66/2/1 65/2/1
f 68/2/1 66/2/1 67/2/1
f 71/2/1 70/2/1 69/2/1
f 72/2/1 70/2/1 71/2/1
f 75/2/1 74/2/1 73/2/1
f 76/2/1 74/2/1 75/2/1
f 81/4/1 78/4/1 77/4/1
f 82/4/1 78/4/1 81/4/1
f 83/4/1 80/4/1 79/4/1
f 84/4/1 80/4/1 83/4/1
f 85/2/2 86/2/2 87/2/2
f 87/2/2 86/2/2 88/2/2
f 89/2/2 90/2/2 91/2/2
f 91/2/2 90/2/2 92/2/2
f 93/2/2 94/2/2 95/2/2
f 95/2/2 94/2/2 96/2/2
f 97/2/2 98/2/2 99/2/2
f 99/2/2 98/2/2 100/2/2
f 101/4/2 102/4/2 105/4/2
f 105/4/2 102/4/2 106/4/2
f 103/4/2 104/4/2 107/4/2
f 107/4/2 104/4/2 108/4/2
f 106/4/2 107/4/2 109/4/2
f 109/4/2 107/4/2 110/4/2
f 109/3/2 110/3/2 111/3/2
f 111/3/2 110/3/2 112/3/2
f 113/3/2 114/3/2 115/3/2
f 115/3/2 114/3/2 116/3/2
f 117/3/2 118/3/2 119/3/2
f 119/3/2 118/3/2 120/3/2
f 121/4/2 122/4/2 125/4/2
f 125/4/2 122/4/2 126/4/2
f 123/4/2 124/4/2 127/4/2
f 127/4/2 124/4/2 128/4/2
f 126/4/2 127/4/2 129/4/2
f 129/4/2 127/4/2 130/4/2
f 131/1/2 132/1/2 133/1/2
f 133/1/2 132/1/2 134/1/2
f 135/1/2 136/1/2 137/1/2
f 137/1/2 136/1/2 138/1/2
f 139/4/2 140/4/2 141/4/2
f 141/4/2 140/4/2 142/4/2
f 143/2/2 144/2/2 145/2/2
f 145/2/2 144/2/2 146/2/2
f 147/2/2 148/2/2 149/2/2
f 149/2/2 148/2/2 150/2/2
f 151/2/2 152/2/2 153/2/2
f 153/2/2 152/2/2 154/2/2
f 155/2/2 156/2/2 157/2/2
f 157/2/2 156/2/2 158/2/2
f 159/2/2 160/2/2 161/2/2
f 161/2/2 160/2/2 162/2/2
f 163/4/2 164/4/2 167/4/2
f 167/4/2 164/4/2 168/4/2
f 165/4/2 166/4/2 169/4/2
f 169/4/2 166/4/2 170/4/2
f 168/4/2 169/4/2 171/4/2
f 171/4/2 169/4/2 172/4/2
f 173/4/2 174/4/2 175/4/2
f 175/4/2 174/4/2 176/4/2
f 177/4/2 178/4/2 181/4/2
f 181/4/2 178/4/2 182/4/2
f 179/4/2 180/4/2 183/4/2
f 183/4/2 180/4/2 184/4/2
f 182/4/2 183/4/2 185/4/2
f 185/4/2 183/4/2 186/4/2
f 187/4/2 188/4/2 189/4/2
f 189/4/2 188/4/2 190/4/2
f 191/4/2 192/4/2 193/4/2
f 193/4/2 192/4/2 194/4/2
f 203/4/3 196/4/3 195/4/3
f 205/4/3 203/4/3 195/4/3
f 205/4/3 204/4/3 203/4/3
f 206/4/3 204/4/3 205/4/3
f 207/4/3 205/4/3 195/4/3
f 208/4/3 205/4/3 207/4/3
f 209/1/3 198/1/3 197/1/3
f 210/1/3 198/1/3 209/1/3
f 211/1/3 200/1/3 199/1/3
f 212/1/3 200/1/3 211/1/3
f 214/4/3 202/4/3 201/4/3
f 215/4/3 207/4/3 195/4/3
f 216/4/3 207/4/3 215/4/3
f 217/4/3 214/4/3 213/4/3
f 218/4/3 202/4/3 214/4/3
f 218/4/3 214/4/3 217/4/3
f 219/4/3 215/4/3 195/4/3
f 220/4/3 215/4/3 219/4/3
f 221/4/3 202/4/3 218/4/3
f 222/4/3 202/4/3 221/4/3
f 231/4/3 224/4/3 223/4/3
f 232/4/3 224/4/3 231/4/3
f 233/4/3 224/4/3 232/4/3
f 235/1/3 226/1/3 225/1/3
f 236/1/3 226/1/3 235/1/3
f 237/1/3 228/1/3 227/1/3
f 238/1/3 228/1/3 237/1/3
f 239/4/3 230/4/3 229/4/3
f 240/4/3 230/4/3 239/4/3
f 241/4/3 230/4/3 240/4/3
f 243/4/3 234/4/3 233/4/3
f 243/4/3 233/4/3 232/4/3
f 244/4/3 234/4/3 243/4/3
f 245/2/3 242/2/3 241/2/3
f 247/2/3 246/2/3 245/2/3
f 247/2/3 245/2/3 241/2/3
f 248/2/3 246/2/3 247/2/3
f 249/2/3 246/2/3 248/2/3
f 250/2/3 246/2/3 249/2/3
f 251/2/3 246/2/3 250/2/3
f 252/2/3 246/2/3 251/2/3
f 253/2/3 246/2/3 252/2/3
f 254/2/3 246/2/3 253/2/3
f 255/2/3 246/2/3 254/2/3
f 258/4/3 234/4/3 244/4/3
f 259/3/3 235/3/3 234/3/3
f 259/4/3 234/4/3 258/4/3
f 260/3/3 235/3/3 259/3/3
f 261/3/3 237/3/3 236/3/3
f 262/3/3 237/3/3 261/3/3
f 263/3/3 239/3/3 238/3/3
f 264/4/3 240/4/3 239/4/3
f 264/3/3 239/3/3 263/3/3
f 265/2/3 256/2/3 255/2/3
f 265/2/3 255/2/3 254/2/3
f 268/4/3 258/4/3 257/4/3
f 269/4/3 258/4/3 268/4/3
f 270/4/3 240/4/3 264/4/3
f 271/4/3 240/4/3 270/4/3
f 272/4/3 240/4/3 271/4/3
f 273/2/3 247/2/3 241/2/3
f 274/2/3 247/2/3 273/2/3
f 275/2/3 249/2/3 248/2/3
f 276/2/3 249/2/3 275/2/3
f 277/2/3 251/2/3 250/2/3
f 278/2/3 251/2/3 277/2/3
f 279/2/3 253/2/3 252/2/3
f 280/2/3 253/2/3 279/2/3
f 281/2/3 266/2/3 265/2/3
f 281/2/3 265/2/3 254/2/3
f 282/2/3 266/2/3 281/2/3
f 284/4/3 268/4/3 267/4/3
f 285/4/3 268/4/3 284/4/3
f 287/4/3 284/4/3 283/4/3
f 288/4/3 284/4/3 287/4/3
f 289/4/3 287/4/3 286/4/3
f 290/4/3 287/4/3 289/4/3
f 291/4/4 292/4/4 299/4/4
f 299/4/4 292/4/4 300/4/4
f 300/4/4 292/4/4 301/4/4
f 293/1/4 294/1/4 303/1/4
f 303/1/4 294/1/4 304/1/4
f 295/1/4 296/1/4 305/1/4
f 305/1/4 296/1/4 306/1/4
f 297/4/4 298/4/4 307/4/4
f 307/4/4 298/4/4 308/4/4
f 308/4/4 298/4/4 309/4/4
f 301/4/4 302/4/4 311/4/4
f 300/4/4 301/4/4 311/4/4
f 311/4/4 302/4/4 312/4/4
f 309/2/4 310/2/4 313/2/4
f 313/2/4 314/2/4 315/2/4
f 309/2/4 313/2/4 315/2/4
f 315/2/4 314/2/4 316/2/4
f 316/2/4 314/2/4 317/2/4
f 317/2/4 314/2/4 318/2/4
f 318/2/4 314/2/4 319/2/4
f 319/2/4 314/2/4 320/2/4
f 320/2/4 314/2/4 321/2/4
f 321/2/4 314/2/4 322/2/4
f 322/2/4 314/2/4 323/2/4
f 312/4/4 302/4/4 326/4/4
f 302/3/4 303/3/4 327/3/4
f 326/4/4 302/4/4 327/4/4
f 327/3/4 303/3/4 328/3/4
f 304/3/4 305/3/4 329/3/4
f 329/3/4 305/3/4 330/3/4
f 306/3/4 307/3/4 331/3/4
f 307/4/4 308/4/4 332/4/4
f 331/3/4 307/3/4 332/3/4
f 323/2/4 324/2/4 333/2/4
f 322/2/4 323/2/4 333/2/4
f 325/4/4 326/4/4 336/4/4
f 336/4/4 326/4/4 337/4/4
f 332/4/4 308/4/4 338/4/4
f 338/4/4 308/4/4 339/4/4
f 339/4/4 308/4/4 340/4/4
f 309/2/4 315/2/4 341/2/4
f 341/2/4 315/2/4 342/2/4
f 316/2/4 317/2/4 343/2/4
f 343/2/4 317/2/4 344/2/4
f 318/2/4 319/2/4 345/2/4
f 345/2/4 319/2/4 346/2/4
f 320/2/4 321/2/4 347/2/4
f 347/2/4 321/2/4 348/2/4
f 333/2/4 334/2/4 349/2/4
f 322/2/4 333/2/4 349/2/4
f 349/2/4 334/2/4 350/2/4
f 335/4/4 336/4/4 352/4/4
f 352/4/4 336/4/4 353/4/4
f 351/4/4 352/4/4 355/4/4
f 355/4/4 352/4/4 356/4/4
f 354/4/4 355/4/4 357/4/4
f 357/4/4 355/4/4 358/4/4
f 359/4/4 360/4/4 367/4/4
f 359/4/4 367/4/4 369/4/4
f 367/4/4 368/4/4 369/4/4
f 369/4/4 368/4/4 370/4/4
f 359/4/4 369/4/4 371/4/4
f 371/4/4 369/4/4 372/4/4
f 361/1/4 362/1/4 373/1/4
f 373/1/4 362/1/4 374/1/4
f 363/1/4 364/1/4 375/1/4
f 375/1/4 364/1/4 376/1/4
f 365/4/4 366/4/4 378/4/4
f 359/4/4 371/4/4 379/4/4
f 379/4/4 371/4/4 380/4/4
f 377/4/4 378/4/4 381/4/4
f 378/4/4 366/4/4 382/4/4
f 381/4/4 378/4/4 382/4/4
f 359/4/4 379/4/4 383/4/4
f 383/4/4 379/4/4 384/4/4
f 382/4/4 366/4/4 385/4/4
f 385/4/4 366/4/4 386/4/4
f 390/4/5 388/4/5 387/4/5
f 391/4/5 388/4/5 390/4/5
f 393/4/5 390/4/5 389/4/5
f 393/4/5 392/4/5 391/4/5
f 393/4/5 391/4/5 390/4/5
f 394/4/5 392/4/5 393/4/5
f 395/4/5 392/4/5 394/4/5
f 396/4/5 392/4/5 395/4/5
f 397/4/5 395/4/5 394/4/5
f 398/4/5 395/4/5 397/4/5
f 402/1/5 400/1/5 399/1/5
f 403/1/5 400/1/5 402/1/5
f 404/1/5 402/1/5 401/1/5
f 405/1/5 402/1/5 404/1/5
f 406/1/5 400/1/5 403/1/5
f 407/1/5 406/1/5 405/1/5
f 408/1/5 400/1/5 406/1/5
f 408/1/5 406/1/5 407/1/5
f 412/1/5 410/1/5 409/1/5
f 413/1/5 410/1/5 412/1/5
f 414/1/5 412/1/5 411/1/5
f 415/1/5 412/1/5 414/1/5
f 416/1/5 410/1/5 413/1/5
f 417/1/5 416/1/5 415/1/5
f 418/1/5 410/1/5 416/1/5
f 418/1/5 416/1/5 417/1/5
f 423/4/5 420/4/5 419/4/5
f 424/4/5 420/4/5 423/4/5
f 425/4/5 422/4/5 421/4/5
f 426/4/5 422/4/5 425/4/5
f 429/4/5 428/4/5 427/4/5
f 430/4/5 428/4/5 429/4/5
f 431/4/5 428/4/5 430/4/5
f 432/4/5 428/4/5 431/4/5
f 437/4/5 434/4/5 433/4/5
f 438/4/5 434/4/5 437/4/5
f 441/4/5 440/4/5 439/4/5
f 442/4/5 440/4/5 441/4/5
f 443/4/5 436/4/5 435/4/5
f 444/4/5 436/4/5 443/4/5
f 447/2/5 446/2/5 445/2/5
f 448/2/5 446/2/5 447/2/5
f 451/2/5 450/2/5 449/2/5
f 452/2/5 450/2/5 451/2/5
f 455/2/5 454/2/5 453/2/5
f 456/2/5 454/2/5 455/2/5
f 459/2/5 458/2/5 457/2/5
f 460/2/5 458/2/5 459/2/5
f 461/4/6 462/4/6 463/4/6
f 463/4/6 462/4/6 464/4/6
f 464/4/6 465/4/6 467/4/6
f 467/4/6 465/4/6 468/4/6
f 466/4/6 467/4/6 469/4/6
f 469/4/6 467/4/6 470/4/6
f 471/4/6 472/4/6 473/4/6
f 473/4/6 472/4/6 474/4/6
f 474/4/6 475/4/6 477/4/6
f 477/4/6 475/4/6 478/4/6
f 476/4/6 477/4/6 479/4/6
f 479/4/6 477/4/6 480/4/6
f 481/4/6 482/4/6 485/4/6
f 485/4/6 482/4/6 486/4/6
f 483/4/6 484/4/6 487/4/6
f 487/4/6 484/4/6 488/4/6
f 488/4/6 489/4/6 493/4/6
f 493/4/6 489/4/6 494/4/6
f 490/4/6 491/4/6 495/4/6
f 495/4/6 491/4/6 496/4/6
f 492/4/6 493/4/6 497/4/6
f 497/4/6 493/4/6 498/4/6
f 499/4/6 500/4/6 503/4/6
f 503/4/6 500/4/6 504/4/6
f 501/4/6 502/4/6 506/4/6
f 506/4/6 502/4/6 507/4/6
f 504/4/6 505/4/6 509/4/6
f 509/4/6 505/4/6 510/4/6
f 508/4/6 509/4/6 511/4/6
f 511/4/6 509/4/6 512/4/6
f 513/1/6 514/1/6 516/1/6
f 516/1/6 514/1/6 517/1/6
f 515/1/6 516/1/6 518/1/6
f 518/1/6 516/1/6 519/1/6
f 517/1/6 514/1/6 520/1/6
f 519/1/6 520/1/6 521/1/6
f 520/1/6 514/1/6 522/1/6
f 521/1/6 520/1/6 522/1/6
f 523/1/6 524/1/6 526/1/6
f 526/1/6 524/1/6 527/1/6
f 525/1/6 526/1/6 528/1/6
f 528/1/6 526/1/6 529/1/6
f 527/1/6 524/1/6 530/1/6
f 529/1/6 530/1/6 531/1/6
f 530/1/6 524/1/6 532/1/6
f 531/1/6 530/1/6 532/1/6
f 533/4/6 534/4/6 536/4/6
f 536/4/6 534/4/6 537/4/6
f 535/4/6 536/4/6 538/4/6
f 538/4/6 536/4/6 539/4/6
f 537/4/6 534/4/6 540/4/6
f 539/4/6 540/4/6 541/4/6
f 540/4/6 534/4/6 542/4/6
f 541/4/6 540/4/6 542/4/6
f 543/2/6 544/2/6 545/2/6
f 545/2/6 544/2/6 546/2/6
f 547/2/6 548/2/6 549/2/6
f 549/2/6 548/2/6 550/2/6
f 551/2/6 552/2/6 553/2/6
f 553/2/6 552/2/6 554/2/6
f 555/2/6 556/2/6 557/2/6
f 557/2/6 556/2/6 558/2/6
f 559/2/6 560/2/6 561/2/6
f 561/2/6 560/2/6 562/2/6
f 563/2/6 564/2/6 565/2/6
f 565/2/6 564/2/6 566/2/6
f 567/2/6 568/2/6 569/2/6
f 569/2/6 568/2/6 570/2/6
f 571/2/6 572/2/6 573/2/6
f 573/2/6 572/2/6 574/2/6
