# MagicaVoxel @ Ephtracy

# group
o 

# material
mtllib FalegnameDorm.mtl
usemtl palette

# normals
vn -1 0 0
vn 1 0 0
vn 0 0 1
vn 0 0 -1
vn 0 -1 0
vn 0 1 0

# texcoords
vt 0.205078 0.5
vt 0.630859 0.5
vt 0.974609 0.5
vt 0.990234 0.5

# verts
v -1.7 3.2 0.5
v -1.7 3.2 -2
v -1.7 3.8 0.3
v -1.7 3.8 -0.3
v -1.7 3.8 -1.2
v -1.7 3.8 -1.8
v -1.7 3.9 0.3
v -1.7 3.9 -0.3
v -1.7 3.9 -1.2
v -1.7 3.9 -1.8
v -1.7 4 0.5
v -1.7 4 -2
v -1.5 1.7 -1.5
v -1.5 1.7 -1.6
v -1.5 1.8 -1.4
v -1.5 1.8 -1.5
v -1.5 1.9 -1
v -1.5 1.9 -1.4
v -1.5 2 -1
v -1.5 2 -1.1
v -1.5 2.1 -1.1
v -1.5 2.1 -1.4
v -1.5 2.2 0.4
v -1.5 2.2 -0.1
v -1.5 2.3 -0.1
v -1.5 2.3 -0.2
v -1.5 2.3 -1.1
v -1.5 2.3 -1.4
v -1.5 2.4 0.4
v -1.5 2.4 0.3
v -1.5 2.4 -1.1
v -1.5 2.4 -1.2
v -1.5 2.5 -1.2
v -1.5 2.5 -1.4
v -1.5 2.6 0.4
v -1.5 2.6 0.3
v -1.5 2.8 0.4
v -1.5 2.8 0.3
v -1.5 2.9 0.4
v -1.5 2.9 0.3
v -1.5 3.1 0.4
v -1.5 3.1 0.2
v -1.5 3.2 0.3
v -1.5 3.2 0.2
v -1.5 3.2 -0.2
v -1.5 3.2 -1.2
v -1.5 3.2 -1.4
v -1.5 3.2 -1.6
v -1.5 3.2 -1.8
v -1.5 3.3 0.2
v -1.5 3.3 -0.2
v -1.5 3.3 -0.3
v -1.5 3.4 -0.1
v -1.5 3.4 -0.2
v -1.5 3.4 -1.4
v -1.5 3.4 -1.6
v -1.5 3.5 0.2
v -1.5 3.5 0.1
v -1.5 3.6 0.1
v -1.5 3.6 -0.1
v -1.5 3.6 -1.4
v -1.5 3.6 -1.6
v -1.5 3.8 0.3
v -1.5 3.8 -0.3
v -1.5 3.8 -1.2
v -1.5 3.8 -1.8
v -1.5 3.9 0.3
v -1.5 3.9 -0.3
v -1.5 3.9 -1.2
v -1.5 3.9 -1.8
v -1.5 4 0.3
v -1.5 4 -0.3
v -1.5 4 -1.2
v -1.5 4 -1.8
v -1.6 3.2 0.5
v -1.6 3.2 -2
v -1.6 3.8 0.3
v -1.6 3.8 -0.3
v -1.6 3.8 -1.2
v -1.6 3.8 -1.8
v -1.6 3.9 0.3
v -1.6 3.9 -0.3
v -1.6 3.9 -1.2
v -1.6 3.9 -1.8
v -1.6 4 0.5
v -1.6 4 -2
v -1.4 3.9 0.3
v -1.4 3.9 -0.3
v -1.4 3.9 -1.2
v -1.4 3.9 -1.8
v -1.4 4 0.3
v -1.4 4 -0.3
v -1.4 4 -1.2
v -1.4 4 -1.8
v -1.3 1.7 -1.5
v -1.3 1.7 -1.6
v -1.3 1.8 -1.4
v -1.3 1.8 -1.5
v -1.3 1.9 -1
v -1.3 1.9 -1.4
v -1.3 2 -1
v -1.3 2 -1.1
v -1.3 2.1 -1.1
v -1.3 2.1 -1.4
v -1.3 2.2 0.4
v -1.3 2.2 -0.1
v -1.3 2.3 -0.1
v -1.3 2.3 -0.2
v -1.3 2.3 -1.1
v -1.3 2.3 -1.4
v -1.3 2.4 0.4
v -1.3 2.4 0.3
v -1.3 2.4 -1.1
v -1.3 2.4 -1.2
v -1.3 2.5 -1.2
v -1.3 2.5 -1.4
v -1.3 2.6 0.4
v -1.3 2.6 0.3
v -1.3 2.8 0.4
v -1.3 2.8 0.3
v -1.3 2.9 0.4
v -1.3 2.9 0.3
v -1.3 3.1 0.4
v -1.3 3.1 0.2
v -1.3 3.2 0.3
v -1.3 3.2 0.2
v -1.3 3.2 -0.2
v -1.3 3.2 -1.4
v -1.3 3.2 -1.6
v -1.3 3.3 0.3
v -1.3 3.3 0.2
v -1.3 3.8 0.3
v -1.3 3.8 -0.3
v -1.3 3.8 -1.2
v -1.3 3.8 -1.8
v -1.3 3.9 0.3
v -1.3 3.9 -0.3
v -1.3 3.9 -1.2
v -1.3 3.9 -1.8
v -1.2 3.2 0.2
v -1.2 3.2 -0.2
v -1.2 3.2 -1.2
v -1.2 3.2 -1.8
v -1.2 3.3 0.3
v -1.2 3.3 0.2
v -1.2 3.3 -0.2
v -1.2 3.3 -0.3
v -1.2 3.4 -0.1
v -1.2 3.4 -0.2
v -1.2 3.4 -1.4
v -1.2 3.4 -1.6
v -1.2 3.5 0.2
v -1.2 3.5 0.1
v -1.2 3.6 0.1
v -1.2 3.6 -0.1
v -1.2 3.6 -1.4
v -1.2 3.6 -1.6
v -1.2 3.8 0.3
v -1.2 3.8 -0.3
v -1.2 3.8 -1.2
v -1.2 3.8 -1.8
v -1.7 3.2 0.5
v -1.7 4 0.5
v -1.6 3.2 0.5
v -1.6 4 0.5
v -1.5 2.2 0.4
v -1.5 2.4 0.4
v -1.5 2.6 0.4
v -1.5 2.8 0.4
v -1.5 2.9 0.4
v -1.5 3.1 0.4
v -1.3 2.2 0.4
v -1.3 2.4 0.4
v -1.3 2.6 0.4
v -1.3 2.8 0.4
v -1.3 2.9 0.4
v -1.3 3.1 0.4
v -1.6 3.8 0.3
v -1.6 3.9 0.3
v -1.5 2.4 0.3
v -1.5 2.6 0.3
v -1.5 2.8 0.3
v -1.5 2.9 0.3
v -1.5 3.2 0.3
v -1.5 3.8 0.3
v -1.5 3.9 0.3
v -1.5 4 0.3
v -1.4 3.9 0.3
v -1.4 4 0.3
v -1.3 2.4 0.3
v -1.3 2.6 0.3
v -1.3 2.8 0.3
v -1.3 2.9 0.3
v -1.3 3.2 0.3
v -1.3 3.3 0.3
v -1.3 3.8 0.3
v -1.3 3.9 0.3
v -1.2 3.3 0.3
v -1.2 3.8 0.3
v -1.5 3.1 0.2
v -1.5 3.2 0.2
v -1.3 3.1 0.2
v -1.3 3.2 0.2
v -1.3 3.3 0.2
v -1.2 3.2 0.2
v -1.2 3.3 0.2
v -1.5 3.4 -0.1
v -1.5 3.6 -0.1
v -1.2 3.4 -0.1
v -1.2 3.6 -0.1
v -1.5 3.3 -0.2
v -1.5 3.4 -0.2
v -1.2 3.3 -0.2
v -1.2 3.4 -0.2
v -1.5 1.9 -1
v -1.5 2 -1
v -1.3 1.9 -1
v -1.3 2 -1
v -1.5 2 -1.1
v -1.5 2.1 -1.1
v -1.5 2.3 -1.1
v -1.5 2.4 -1.1
v -1.3 2 -1.1
v -1.3 2.1 -1.1
v -1.3 2.3 -1.1
v -1.3 2.4 -1.1
v -1.6 3.8 -1.2
v -1.6 3.9 -1.2
v -1.5 2.4 -1.2
v -1.5 2.5 -1.2
v -1.5 3.2 -1.2
v -1.5 3.8 -1.2
v -1.5 3.9 -1.2
v -1.5 4 -1.2
v -1.4 3.9 -1.2
v -1.4 4 -1.2
v -1.3 2.4 -1.2
v -1.3 2.5 -1.2
v -1.3 3.8 -1.2
v -1.3 3.9 -1.2
v -1.2 3.2 -1.2
v -1.2 3.8 -1.2
v -1.5 1.8 -1.4
v -1.5 1.9 -1.4
v -1.5 2.1 -1.4
v -1.5 2.3 -1.4
v -1.5 2.5 -1.4
v -1.5 3.2 -1.4
v -1.3 1.8 -1.4
v -1.3 1.9 -1.4
v -1.3 2.1 -1.4
v -1.3 2.3 -1.4
v -1.3 2.5 -1.4
v -1.3 3.2 -1.4
v -1.5 1.7 -1.5
v -1.5 1.8 -1.5
v -1.3 1.7 -1.5
v -1.3 1.8 -1.5
v -1.5 3.4 -1.6
v -1.5 3.6 -1.6
v -1.2 3.4 -1.6
v -1.2 3.6 -1.6
v -1.5 3.3 0.2
v -1.5 3.5 0.2
v -1.2 3.3 0.2
v -1.2 3.5 0.2
v -1.5 3.5 0.1
v -1.5 3.6 0.1
v -1.2 3.5 0.1
v -1.2 3.6 0.1
v -1.5 2.2 -0.1
v -1.5 2.3 -0.1
v -1.3 2.2 -0.1
v -1.3 2.3 -0.1
v -1.5 2.3 -0.2
v -1.5 3.2 -0.2
v -1.5 3.3 -0.2
v -1.3 2.3 -0.2
v -1.3 3.2 -0.2
v -1.2 3.2 -0.2
v -1.2 3.3 -0.2
v -1.6 3.8 -0.3
v -1.6 3.9 -0.3
v -1.5 3.3 -0.3
v -1.5 3.8 -0.3
v -1.5 3.9 -0.3
v -1.5 4 -0.3
v -1.4 3.9 -0.3
v -1.4 4 -0.3
v -1.3 3.8 -0.3
v -1.3 3.9 -0.3
v -1.2 3.3 -0.3
v -1.2 3.8 -0.3
v -1.5 3.4 -1.4
v -1.5 3.6 -1.4
v -1.2 3.4 -1.4
v -1.2 3.6 -1.4
v -1.5 1.7 -1.6
v -1.5 3.2 -1.6
v -1.3 1.7 -1.6
v -1.3 3.2 -1.6
v -1.6 3.8 -1.8
v -1.6 3.9 -1.8
v -1.5 3.2 -1.8
v -1.5 3.8 -1.8
v -1.5 3.9 -1.8
v -1.5 4 -1.8
v -1.4 3.9 -1.8
v -1.4 4 -1.8
v -1.3 3.8 -1.8
v -1.3 3.9 -1.8
v -1.2 3.2 -1.8
v -1.2 3.8 -1.8
v -1.7 3.2 -2
v -1.7 4 -2
v -1.6 3.2 -2
v -1.6 4 -2
v -1.5 1.7 -1.5
v -1.3 1.7 -1.5
v -1.5 1.7 -1.6
v -1.3 1.7 -1.6
v -1.5 1.8 -1.4
v -1.3 1.8 -1.4
v -1.5 1.8 -1.5
v -1.3 1.8 -1.5
v -1.5 1.9 -1
v -1.3 1.9 -1
v -1.5 1.9 -1.4
v -1.3 1.9 -1.4
v -1.5 2.2 0.4
v -1.3 2.2 0.4
v -1.5 2.2 -0.1
v -1.3 2.2 -0.1
v -1.5 2.3 -0.1
v -1.3 2.3 -0.1
v -1.5 2.3 -0.2
v -1.3 2.3 -0.2
v -1.5 2.3 -1.1
v -1.3 2.3 -1.1
v -1.5 2.3 -1.4
v -1.3 2.3 -1.4
v -1.5 2.6 0.4
v -1.3 2.6 0.4
v -1.5 2.6 0.3
v -1.3 2.6 0.3
v -1.5 2.9 0.4
v -1.3 2.9 0.4
v -1.5 2.9 0.3
v -1.3 2.9 0.3
v -1.7 3.2 0.5
v -1.6 3.2 0.5
v -1.5 3.2 0.3
v -1.3 3.2 0.3
v -1.5 3.2 0.2
v -1.3 3.2 0.2
v -1.2 3.2 0.2
v -1.3 3.2 -0.2
v -1.2 3.2 -0.2
v -1.5 3.2 -1.2
v -1.2 3.2 -1.2
v -1.5 3.2 -1.4
v -1.3 3.2 -1.4
v -1.5 3.2 -1.6
v -1.3 3.2 -1.6
v -1.5 3.2 -1.8
v -1.2 3.2 -1.8
v -1.7 3.2 -2
v -1.6 3.2 -2
v -1.3 3.3 0.3
v -1.2 3.3 0.3
v -1.3 3.3 0.2
v -1.2 3.3 0.2
v -1.5 3.3 -0.2
v -1.2 3.3 -0.2
v -1.5 3.3 -0.3
v -1.2 3.3 -0.3
v -1.5 3.4 -0.1
v -1.2 3.4 -0.1
v -1.5 3.4 -0.2
v -1.2 3.4 -0.2
v -1.5 3.5 0.2
v -1.2 3.5 0.2
v -1.5 3.5 0.1
v -1.2 3.5 0.1
v -1.5 3.6 0.1
v -1.2 3.6 0.1
v -1.5 3.6 -0.1
v -1.2 3.6 -0.1
v -1.5 3.6 -1.4
v -1.2 3.6 -1.4
v -1.5 3.6 -1.6
v -1.2 3.6 -1.6
v -1.6 3.8 0.3
v -1.5 3.8 0.3
v -1.6 3.8 -0.3
v -1.5 3.8 -0.3
v -1.6 3.8 -1.2
v -1.5 3.8 -1.2
v -1.6 3.8 -1.8
v -1.5 3.8 -1.8
v -1.5 2 -1
v -1.3 2 -1
v -1.5 2 -1.1
v -1.3 2 -1.1
v -1.5 2.1 -1.1
v -1.3 2.1 -1.1
v -1.5 2.1 -1.4
v -1.3 2.1 -1.4
v -1.5 2.4 0.4
v -1.3 2.4 0.4
v -1.5 2.4 0.3
v -1.3 2.4 0.3
v -1.5 2.4 -1.1
v -1.3 2.4 -1.1
v -1.5 2.4 -1.2
v -1.3 2.4 -1.2
v -1.5 2.5 -1.2
v -1.3 2.5 -1.2
v -1.5 2.5 -1.4
v -1.3 2.5 -1.4
v -1.5 2.8 0.4
v -1.3 2.8 0.4
v -1.5 2.8 0.3
v -1.3 2.8 0.3
v -1.5 3.1 0.4
v -1.3 3.1 0.4
v -1.5 3.1 0.2
v -1.3 3.1 0.2
v -1.5 3.3 0.2
v -1.2 3.3 0.2
v -1.5 3.3 -0.2
v -1.2 3.3 -0.2
v -1.5 3.4 -1.4
v -1.2 3.4 -1.4
v -1.5 3.4 -1.6
v -1.2 3.4 -1.6
v -1.3 3.8 0.3
v -1.2 3.8 0.3
v -1.3 3.8 -0.3
v -1.2 3.8 -0.3
v -1.3 3.8 -1.2
v -1.2 3.8 -1.2
v -1.3 3.8 -1.8
v -1.2 3.8 -1.8
v -1.6 3.9 0.3
v -1.5 3.9 0.3
v -1.4 3.9 0.3
v -1.3 3.9 0.3
v -1.6 3.9 -0.3
v -1.5 3.9 -0.3
v -1.4 3.9 -0.3
v -1.3 3.9 -0.3
v -1.6 3.9 -1.2
v -1.5 3.9 -1.2
v -1.4 3.9 -1.2
v -1.3 3.9 -1.2
v -1.6 3.9 -1.8
v -1.5 3.9 -1.8
v -1.4 3.9 -1.8
v -1.3 3.9 -1.8
v -1.7 4 0.5
v -1.6 4 0.5
v -1.5 4 0.3
v -1.4 4 0.3
v -1.5 4 -0.3
v -1.4 4 -0.3
v -1.5 4 -1.2
v -1.4 4 -1.2
v -1.5 4 -1.8
v -1.4 4 -1.8
v -1.7 4 -2
v -1.6 4 -2

# faces
f 3/1/1 2/1/1 1/1/1
f 4/1/1 2/1/1 3/1/1
f 5/1/1 2/1/1 4/1/1
f 6/1/1 2/1/1 5/1/1
f 7/1/1 3/1/1 1/1/1
f 7/4/1 4/4/1 3/4/1
f 8/1/1 5/1/1 4/1/1
f 8/4/1 4/4/1 7/4/1
f 9/4/1 6/4/1 5/4/1
f 9/1/1 5/1/1 8/1/1
f 10/1/1 2/1/1 6/1/1
f 10/4/1 6/4/1 9/4/1
f 11/1/1 9/1/1 8/1/1
f 11/1/1 8/1/1 7/1/1
f 11/1/1 10/1/1 9/1/1
f 11/1/1 7/1/1 1/1/1
f 12/1/1 2/1/1 10/1/1
f 12/1/1 10/1/1 11/1/1
f 16/3/1 14/3/1 13/3/1
f 18/3/1 16/3/1 15/3/1
f 19/3/1 18/3/1 17/3/1
f 20/3/1 18/3/1 19/3/1
f 21/3/1 18/3/1 20/3/1
f 22/3/1 16/3/1 18/3/1
f 22/3/1 18/3/1 21/3/1
f 25/3/1 24/3/1 23/3/1
f 28/3/1 16/3/1 22/3/1
f 29/3/1 26/3/1 25/3/1
f 29/3/1 25/3/1 23/3/1
f 30/3/1 26/3/1 29/3/1
f 31/3/1 28/3/1 27/3/1
f 32/3/1 28/3/1 31/3/1
f 33/3/1 28/3/1 32/3/1
f 34/3/1 16/3/1 28/3/1
f 34/3/1 28/3/1 33/3/1
f 36/3/1 26/3/1 30/3/1
f 37/3/1 36/3/1 35/3/1
f 38/3/1 26/3/1 36/3/1
f 38/3/1 36/3/1 37/3/1
f 40/3/1 26/3/1 38/3/1
f 41/3/1 40/3/1 39/3/1
f 42/3/1 26/3/1 40/3/1
f 42/3/1 40/3/1 41/3/1
f 44/3/1 26/3/1 42/3/1
f 45/3/1 26/3/1 44/3/1
f 47/3/1 16/3/1 34/3/1
f 48/3/1 14/3/1 16/3/1
f 48/3/1 16/3/1 47/3/1
f 50/2/1 45/2/1 44/2/1
f 50/2/1 44/2/1 43/2/1
f 51/2/1 45/2/1 50/2/1
f 54/2/1 52/2/1 51/2/1
f 55/2/1 47/2/1 46/2/1
f 55/2/1 49/2/1 48/2/1
f 55/2/1 48/2/1 47/2/1
f 56/2/1 49/2/1 55/2/1
f 57/2/1 50/2/1 43/2/1
f 59/2/1 58/2/1 57/2/1
f 60/2/1 54/2/1 53/2/1
f 61/2/1 55/2/1 46/2/1
f 62/2/1 49/2/1 56/2/1
f 63/2/1 59/2/1 57/2/1
f 63/2/1 60/2/1 59/2/1
f 63/2/1 57/2/1 43/2/1
f 64/2/1 52/2/1 54/2/1
f 64/2/1 60/2/1 63/2/1
f 64/2/1 54/2/1 60/2/1
f 65/2/1 62/2/1 61/2/1
f 65/2/1 61/2/1 46/2/1
f 66/2/1 49/2/1 62/2/1
f 66/2/1 62/2/1 65/2/1
f 71/4/1 68/4/1 67/4/1
f 72/4/1 68/4/1 71/4/1
f 73/4/1 70/4/1 69/4/1
f 74/4/1 70/4/1 73/4/1
f 75/1/2 76/1/2 77/1/2
f 77/1/2 76/1/2 78/1/2
f 78/1/2 76/1/2 79/1/2
f 79/1/2 76/1/2 80/1/2
f 75/1/2 77/1/2 81/1/2
f 78/1/2 79/1/2 82/1/2
f 82/1/2 79/1/2 83/1/2
f 80/1/2 76/1/2 84/1/2
f 82/1/2 83/1/2 85/1/2
f 83/1/2 84/1/2 85/1/2
f 75/1/2 81/1/2 85/1/2
f 81/1/2 82/1/2 85/1/2
f 84/1/2 76/1/2 86/1/2
f 85/1/2 84/1/2 86/1/2
f 87/4/2 88/4/2 91/4/2
f 91/4/2 88/4/2 92/4/2
f 89/4/2 90/4/2 93/4/2
f 93/4/2 90/4/2 94/4/2
f 95/3/2 96/3/2 98/3/2
f 97/3/2 98/3/2 100/3/2
f 99/3/2 100/3/2 101/3/2
f 101/3/2 100/3/2 102/3/2
f 102/3/2 100/3/2 103/3/2
f 100/3/2 98/3/2 104/3/2
f 103/3/2 100/3/2 104/3/2
f 105/3/2 106/3/2 107/3/2
f 104/3/2 98/3/2 110/3/2
f 107/3/2 108/3/2 111/3/2
f 105/3/2 107/3/2 111/3/2
f 111/3/2 108/3/2 112/3/2
f 109/3/2 110/3/2 113/3/2
f 113/3/2 110/3/2 114/3/2
f 114/3/2 110/3/2 115/3/2
f 110/3/2 98/3/2 116/3/2
f 115/3/2 110/3/2 116/3/2
f 112/3/2 108/3/2 118/3/2
f 117/3/2 118/3/2 119/3/2
f 118/3/2 108/3/2 120/3/2
f 119/3/2 118/3/2 120/3/2
f 120/3/2 108/3/2 122/3/2
f 121/3/2 122/3/2 123/3/2
f 122/3/2 108/3/2 124/3/2
f 123/3/2 122/3/2 124/3/2
f 124/3/2 108/3/2 126/3/2
f 126/3/2 108/3/2 127/3/2
f 116/3/2 98/3/2 128/3/2
f 98/3/2 96/3/2 129/3/2
f 128/3/2 98/3/2 129/3/2
f 125/2/2 126/2/2 130/2/2
f 130/2/2 126/2/2 131/2/2
f 132/4/2 133/4/2 136/4/2
f 136/4/2 133/4/2 137/4/2
f 134/4/2 135/4/2 138/4/2
f 138/4/2 135/4/2 139/4/2
f 140/2/2 141/2/2 145/2/2
f 145/2/2 141/2/2 146/2/2
f 146/2/2 147/2/2 149/2/2
f 142/2/2 143/2/2 150/2/2
f 150/2/2 143/2/2 151/2/2
f 144/2/2 145/2/2 152/2/2
f 152/2/2 153/2/2 154/2/2
f 148/2/2 149/2/2 155/2/2
f 142/2/2 150/2/2 156/2/2
f 151/2/2 143/2/2 157/2/2
f 152/2/2 154/2/2 158/2/2
f 154/2/2 155/2/2 158/2/2
f 144/2/2 152/2/2 158/2/2
f 149/2/2 147/2/2 159/2/2
f 158/2/2 155/2/2 159/2/2
f 155/2/2 149/2/2 159/2/2
f 156/2/2 157/2/2 160/2/2
f 142/2/2 156/2/2 160/2/2
f 157/2/2 143/2/2 161/2/2
f 160/2/2 157/2/2 161/2/2
f 164/1/3 163/1/3 162/1/3
f 165/1/3 163/1/3 164/1/3
f 172/3/3 167/3/3 166/3/3
f 173/3/3 167/3/3 172/3/3
f 174/3/3 169/3/3 168/3/3
f 175/3/3 169/3/3 174/3/3
f 176/3/3 171/3/3 170/3/3
f 177/3/3 171/3/3 176/3/3
f 185/4/3 179/4/3 178/4/3
f 186/4/3 179/4/3 185/4/3
f 188/4/3 186/4/3 185/4/3
f 188/4/3 187/4/3 186/4/3
f 189/4/3 187/4/3 188/4/3
f 190/3/3 181/3/3 180/3/3
f 191/3/3 181/3/3 190/3/3
f 192/3/3 183/3/3 182/3/3
f 193/3/3 183/3/3 192/3/3
f 194/2/3 185/2/3 184/2/3
f 195/2/3 185/2/3 194/2/3
f 196/4/3 188/4/3 185/4/3
f 196/2/3 185/2/3 195/2/3
f 197/4/3 188/4/3 196/4/3
f 198/2/3 196/2/3 195/2/3
f 199/2/3 196/2/3 198/2/3
f 202/3/3 201/3/3 200/3/3
f 203/3/3 201/3/3 202/3/3
f 205/2/3 204/2/3 203/2/3
f 206/2/3 204/2/3 205/2/3
f 209/2/3 208/2/3 207/2/3
f 210/2/3 208/2/3 209/2/3
f 213/2/3 212/2/3 211/2/3
f 214/2/3 212/2/3 213/2/3
f 217/3/3 216/3/3 215/3/3
f 218/3/3 216/3/3 217/3/3
f 223/3/3 220/3/3 219/3/3
f 224/3/3 220/3/3 223/3/3
f 225/3/3 222/3/3 221/3/3
f 226/3/3 222/3/3 225/3/3
f 232/4/3 228/4/3 227/4/3
f 233/4/3 228/4/3 232/4/3
f 235/4/3 233/4/3 232/4/3
f 235/4/3 234/4/3 233/4/3
f 236/4/3 234/4/3 235/4/3
f 237/3/3 230/3/3 229/3/3
f 238/3/3 230/3/3 237/3/3
f 239/2/3 232/2/3 231/2/3
f 239/4/3 235/4/3 232/4/3
f 240/4/3 235/4/3 239/4/3
f 241/2/3 239/2/3 231/2/3
f 242/2/3 239/2/3 241/2/3
f 249/3/3 244/3/3 243/3/3
f 250/3/3 244/3/3 249/3/3
f 251/3/3 246/3/3 245/3/3
f 252/3/3 246/3/3 251/3/3
f 253/3/3 248/3/3 247/3/3
f 254/3/3 248/3/3 253/3/3
f 257/3/3 256/3/3 255/3/3
f 258/3/3 256/3/3 257/3/3
f 261/2/3 260/2/3 259/2/3
f 262/2/3 260/2/3 261/2/3
f 263/2/4 264/2/4 265/2/4
f 265/2/4 264/2/4 266/2/4
f 267/2/4 268/2/4 269/2/4
f 269/2/4 268/2/4 270/2/4
f 271/3/4 272/3/4 273/3/4
f 273/3/4 272/3/4 274/3/4
f 275/3/4 276/3/4 278/3/4
f 276/2/4 277/2/4 279/2/4
f 278/3/4 276/3/4 279/3/4
f 279/2/4 277/2/4 280/2/4
f 280/2/4 277/2/4 281/2/4
f 282/4/4 283/4/4 285/4/4
f 285/4/4 283/4/4 286/4/4
f 285/4/4 286/4/4 288/4/4
f 286/4/4 287/4/4 288/4/4
f 288/4/4 287/4/4 289/4/4
f 284/2/4 285/2/4 290/2/4
f 285/4/4 288/4/4 290/4/4
f 290/4/4 288/4/4 291/4/4
f 284/2/4 290/2/4 292/2/4
f 292/2/4 290/2/4 293/2/4
f 294/2/4 295/2/4 296/2/4
f 296/2/4 295/2/4 297/2/4
f 298/3/4 299/3/4 300/3/4
f 300/3/4 299/3/4 301/3/4
f 302/4/4 303/4/4 305/4/4
f 305/4/4 303/4/4 306/4/4
f 305/4/4 306/4/4 308/4/4
f 306/4/4 307/4/4 308/4/4
f 308/4/4 307/4/4 309/4/4
f 304/2/4 305/2/4 310/2/4
f 305/4/4 308/4/4 310/4/4
f 310/4/4 308/4/4 311/4/4
f 304/2/4 310/2/4 312/2/4
f 312/2/4 310/2/4 313/2/4
f 314/1/4 315/1/4 316/1/4
f 316/1/4 315/1/4 317/1/4
f 320/3/5 319/3/5 318/3/5
f 321/3/5 319/3/5 320/3/5
f 324/3/5 323/3/5 322/3/5
f 325/3/5 323/3/5 324/3/5
f 328/3/5 327/3/5 326/3/5
f 329/3/5 327/3/5 328/3/5
f 332/3/5 331/3/5 330/3/5
f 333/3/5 331/3/5 332/3/5
f 336/3/5 335/3/5 334/3/5
f 337/3/5 335/3/5 336/3/5
f 340/3/5 339/3/5 338/3/5
f 341/3/5 339/3/5 340/3/5
f 344/3/5 343/3/5 342/3/5
f 345/3/5 343/3/5 344/3/5
f 348/3/5 347/3/5 346/3/5
f 349/3/5 347/3/5 348/3/5
f 354/2/5 353/2/5 352/2/5
f 355/2/5 353/2/5 354/2/5
f 357/2/5 356/2/5 355/2/5
f 358/2/5 356/2/5 357/2/5
f 361/2/5 360/2/5 359/2/5
f 362/2/5 360/2/5 361/2/5
f 364/2/5 360/2/5 362/2/5
f 365/2/5 364/2/5 363/2/5
f 366/2/5 360/2/5 364/2/5
f 366/2/5 364/2/5 365/2/5
f 367/1/5 351/1/5 350/1/5
f 368/1/5 351/1/5 367/1/5
f 371/2/5 370/2/5 369/2/5
f 372/2/5 370/2/5 371/2/5
f 375/2/5 374/2/5 373/2/5
f 376/2/5 374/2/5 375/2/5
f 379/2/5 378/2/5 377/2/5
f 380/2/5 378/2/5 379/2/5
f 383/2/5 382/2/5 381/2/5
f 384/2/5 382/2/5 383/2/5
f 387/2/5 386/2/5 385/2/5
f 388/2/5 386/2/5 387/2/5
f 391/2/5 390/2/5 389/2/5
f 392/2/5 390/2/5 391/2/5
f 395/4/5 394/4/5 393/4/5
f 396/4/5 394/4/5 395/4/5
f 399/4/5 398/4/5 397/4/5
f 400/4/5 398/4/5 399/4/5
f 401/3/6 402/3/6 403/3/6
f 403/3/6 402/3/6 404/3/6
f 405/3/6 406/3/6 407/3/6
f 407/3/6 406/3/6 408/3/6
f 409/3/6 410/3/6 411/3/6
f 411/3/6 410/3/6 412/3/6
f 413/3/6 414/3/6 415/3/6
f 415/3/6 414/3/6 416/3/6
f 417/3/6 418/3/6 419/3/6
f 419/3/6 418/3/6 420/3/6
f 421/3/6 422/3/6 423/3/6
f 423/3/6 422/3/6 424/3/6
f 425/3/6 426/3/6 427/3/6
f 427/3/6 426/3/6 428/3/6
f 429/2/6 430/2/6 431/2/6
f 431/2/6 430/2/6 432/2/6
f 433/2/6 434/2/6 435/2/6
f 435/2/6 434/2/6 436/2/6
f 437/2/6 438/2/6 439/2/6
f 439/2/6 438/2/6 440/2/6
f 441/2/6 442/2/6 443/2/6
f 443/2/6 442/2/6 444/2/6
f 445/4/6 446/4/6 449/4/6
f 449/4/6 446/4/6 450/4/6
f 447/4/6 448/4/6 451/4/6
f 451/4/6 448/4/6 452/4/6
f 453/4/6 454/4/6 457/4/6
f 457/4/6 454/4/6 458/4/6
f 455/4/6 456/4/6 459/4/6
f 459/4/6 456/4/6 460/4/6
f 463/4/6 464/4/6 465/4/6
f 465/4/6 464/4/6 466/4/6
f 467/4/6 468/4/6 469/4/6
f 469/4/6 468/4/6 470/4/6
f 461/1/6 462/1/6 471/1/6
f 471/1/6 462/1/6 472/1/6
